<svg width="24" height="24" viewBox="0 0 24 24" fill="none" xmlns="http://www.w3.org/2000/svg">
<rect width="24" height="24" rx="4" fill="#1B1D21"/>
<path fill-rule="evenodd" clip-rule="evenodd" d="M14.6706 11.4873C15.3944 10.9566 15.8423 10.0712 15.7339 9.08158C15.5857 7.72911 14.3574 6.74999 12.9969 6.75H7.5V7.5L8.58541 8.04271C8.8395 8.16975 9 8.42945 9 8.71352V15.2865C9 15.5705 8.8395 15.8302 8.58541 15.9573L7.5 16.5V17.25H13.367C14.9449 17.25 16.3523 16.0894 16.4884 14.5174C16.6057 13.1631 15.8222 11.9759 14.6706 11.4873ZM11.25 8.25H12C12.8284 8.25 13.5 8.92154 13.5 9.75C13.5 10.5784 12.8284 11.25 12 11.25H11.25V8.25ZM11.25 12.75V15.75H12.75C13.5784 15.75 14.25 15.0784 14.25 14.25C14.25 13.4215 13.5784 12.75 12.75 12.75H11.25Z" fill="white"/>
</svg>
