<svg width="24" height="24" viewBox="0 0 24 24" fill="none" xmlns="http://www.w3.org/2000/svg">
<rect width="24" height="24" rx="4" fill="#F0F3F6"/>
<path d="M12 15.75C13.275 15.75 14.25 14.775 14.25 13.5H9.75C9.75 14.775 10.725 15.75 12 15.75Z" fill="#808191"/>
<path fill-rule="evenodd" clip-rule="evenodd" d="M18 9.75C18 9 17.4 8.325 16.65 8.25C15.525 6.825 13.8 6 12 6C10.2 6 8.475 6.825 7.35 8.25C6.6 8.325 6 9 6 9.75V12C6 15.3 8.7 18 12 18C15.3 18 18 15.3 18 12V9.75ZM16.5 10.5V11.25H14.25V9.75H16.5V10.5ZM14.25 8.25H14.475C13.725 7.8 12.9 7.5 12 7.5C11.1 7.5 10.275 7.8 9.525 8.25H9.75C10.575 8.25 11.25 8.925 11.25 9.75H12.75C12.75 8.925 13.425 8.25 14.25 8.25ZM7.5 9.75H9.75V11.25H7.5V9.75ZM7.575 12.75C7.95 14.85 9.75 16.5 12 16.5C14.25 16.5 16.05 14.85 16.425 12.75H14.25C13.425 12.75 12.75 12.075 12.75 11.25H11.25C11.25 12.075 10.575 12.75 9.75 12.75H7.575Z" fill="#808191"/>
</svg>
