<svg width="24" height="24" viewBox="0 0 24 24" fill="none" xmlns="http://www.w3.org/2000/svg">
<rect width="24" height="24" rx="4" fill="#F0F3F6"/>
<path fill-rule="evenodd" clip-rule="evenodd" d="M6.75006 9.00006H17.2501C17.4525 8.98789 17.6504 9.06299 17.7937 9.20637C17.9371 9.34974 18.0122 9.54766 18.0001 9.75006V17.2501C18.0122 17.4525 17.9371 17.6504 17.7937 17.7937C17.6504 17.9371 17.4525 18.0122 17.2501 18.0001H6.75006C6.54766 18.0122 6.34974 17.9371 6.20637 17.7937C6.06299 17.6504 5.98789 17.4525 6.00006 17.2501V9.75006C5.98789 9.54766 6.06299 9.34974 6.20637 9.20637C6.34974 9.06299 6.54766 8.98789 6.75006 9.00006ZM7.50006 16.5001H16.5001V10.5001H7.50006V16.5001Z" fill="#1B1D21"/>
<rect x="7.5" y="6" width="9" height="1.5" fill="#1B1D21"/>
<path d="M9.75 15.75L13.5 12L15.75 15.75H9.75Z" fill="#1B1D21"/>
<circle cx="9.75" cy="12.75" r="0.75" fill="#1B1D21"/>
</svg>
