<svg width="48" height="56" viewBox="0 0 48 56" fill="none" xmlns="http://www.w3.org/2000/svg">
<path fill-rule="evenodd" clip-rule="evenodd" d="M15.5008 25.7871V25.5681C15.533 24.9202 15.7406 24.2925 16.1024 23.7496C16.7045 23.0975 17.1167 22.2983 17.2957 21.436C17.2957 20.7695 17.2957 20.0935 17.3539 19.427C17.6547 16.2184 20.8273 14 23.9611 14H24.0387C27.1725 14 30.345 16.2184 30.6555 19.427C30.7137 20.0935 30.6555 20.7695 30.704 21.436C30.8854 22.3003 31.2972 23.1019 31.8974 23.7591C32.2618 24.2972 32.4698 24.9227 32.4989 25.5681V25.7776C32.5206 26.648 32.2208 27.4968 31.6548 28.1674C30.907 28.9515 29.8921 29.4393 28.8024 29.5384C25.607 29.8812 22.383 29.8812 19.1876 29.5384C18.0991 29.435 17.0858 28.9479 16.3352 28.1674C15.778 27.4963 15.4822 26.6526 15.5008 25.7871Z" stroke="#808191" stroke-width="1.5" stroke-linecap="round" stroke-linejoin="round"/>
<path d="M21.5549 32.8516C22.0542 33.4782 22.7874 33.8838 23.5922 33.9785C24.3971 34.0732 25.2072 33.8493 25.8433 33.3562C26.0389 33.2103 26.2149 33.0408 26.3672 32.8516" stroke="#808191" stroke-width="1.5" stroke-linecap="round" stroke-linejoin="round"/>
</svg>
