<svg width="22" height="22" viewBox="0 0 22 22" fill="none" xmlns="http://www.w3.org/2000/svg">
<path opacity="0.4" d="M10.4999 10.4903V10.9903C10.7761 10.9903 10.9999 10.7665 10.9999 10.4903H10.4999ZM10.4999 11.4903H10.9999C10.9999 11.2142 10.7761 10.9903 10.4999 10.9903V11.4903ZM11.4999 11.4903V10.9903C11.2238 10.9903 10.9999 11.2142 10.9999 11.4903H11.4999ZM11.4999 10.4903H10.9999C10.9999 10.7665 11.2238 10.9903 11.4999 10.9903V10.4903ZM10.9999 7.32715H11.9999C11.9999 6.77486 11.5522 6.32715 10.9999 6.32715V7.32715ZM10.9999 7.32715H10.9999V6.32715C10.4476 6.32715 9.99992 6.77486 9.99992 7.32715H10.9999ZM10.9999 10.4903V7.32715H9.99992V10.4903H10.9999ZM7.33325 10.9903H10.4999V9.99033H7.33325V10.9903ZM7.33325 10.9903V9.99033C6.78097 9.99033 6.33325 10.438 6.33325 10.9903H7.33325ZM7.33325 10.9903H6.33325C6.33325 11.5426 6.78097 11.9903 7.33325 11.9903V10.9903ZM10.4999 10.9903H7.33325V11.9903H10.4999V10.9903ZM10.9999 14.6535V11.4903H9.99992V14.6535H10.9999ZM10.9999 14.6535H10.9999H9.99992C9.99992 15.2058 10.4476 15.6535 10.9999 15.6535V14.6535ZM10.9999 14.6535V15.6535C11.5522 15.6535 11.9999 15.2058 11.9999 14.6535H10.9999ZM10.9999 11.4903V14.6535H11.9999V11.4903H10.9999ZM14.6666 10.9903H11.4999V11.9903H14.6666V10.9903ZM14.6666 10.9903H14.6666V11.9903C15.2189 11.9903 15.6666 11.5426 15.6666 10.9903H14.6666ZM14.6666 10.9903H14.6666H15.6666C15.6666 10.438 15.2189 9.99033 14.6666 9.99033V10.9903ZM11.4999 10.9903H14.6666V9.99033H11.4999V10.9903ZM10.9999 7.32715V10.4903H11.9999V7.32715H10.9999Z" fill="#11142D"/>
<path fill-rule="evenodd" clip-rule="evenodd" d="M15.6857 1H6.31429C3.04762 1 1 3.31208 1 6.58516V15.4148C1 18.6879 3.0381 21 6.31429 21H15.6857C18.9619 21 21 18.6879 21 15.4148V6.58516C21 3.31208 18.9619 1 15.6857 1Z" stroke="#808191" stroke-width="1.5" stroke-linecap="round" stroke-linejoin="round"/>
</svg>
